<svg xmlns="http://www.w3.org/2000/svg" viewBox="0 0 496 496" width="512" height="512"><g fill="#5a5a5a"><path d="M32 32h16v16H32zm32 0h16v16H64zm32 0h16v16H96z"/><path d="M496 272V96H384V0H0v496h384v-32h112V288H384v-16h112zM16 16h352v48H16V16zm352 464H16V80h352v16H224v80h-60l-36.336 48.456C118.312 219.104 107.52 216 96 216c-35.288 0-64 28.712-64 64s28.712 64 64 64c11.52 0 22.312-3.104 31.664-8.456L164 384h60v80h144v16zM160 280c0-18.024-7.52-34.296-19.544-45.944L172 192h52v80h144v16H224v80h-52l-31.544-42.056C152.48 314.296 160 298.024 160 280zm-64 48c-26.472 0-48-21.528-48-48s21.528-48 48-48 48 21.528 48 48-21.528 48-48 48zm384-24v144H240V304h240zm-240-48V112h240v144H240z"/><path d="M256 128h208v16H256zm32 32h176v16H288zm-32 0h16v16h-16zm0 32h208v16H256zm192 32h16v16h-16zm-192 0h176v16H256zm61.656 194.344L275.312 376l42.344-42.344-11.312-11.312L252.688 376l53.656 53.656zm96 11.312L467.312 376l-53.656-53.656-11.312 11.312L444.688 376l-42.344 42.344zM368.44 325.45l15.17 5.062-32.028 95.991-15.17-5.061zM88 272h16v16H88zm32 0h16v16h-16zm-64 0h16v16H56z"/></g></svg>