<?xml version="1.0" encoding="utf-8"?>
<!-- Generator: Adobe Illustrator 25.1.0, SVG Export Plug-In . SVG Version: 6.00 Build 0)  -->
<svg version="1.1" id="Layer_1" xmlns="http://www.w3.org/2000/svg" xmlns:xlink="http://www.w3.org/1999/xlink" x="0px" y="0px"
	 viewBox="0 0 3118.11 566.93" style="enable-background:new 0 0 3118.11 566.93;" xml:space="preserve">
<style type="text/css">
	.st0{fill:#93C01F;stroke:#4A4A49;stroke-width:12;stroke-miterlimit:10;}
	.st1{fill:#93C01F;}
	.st2{fill:#93C021;}
	.st3{fill:#4A4A49;}
	.st4{fill:#F5F5F5;}
</style>
<circle class="st0" cx="296.88" cy="283.46" r="170.08"/>
<g>
	<path class="st1" d="M534.68,199.16h72.55c43.29,0,80.48,15.85,80.48,65.85c0,48.47-37.8,69.5-79.26,69.5h-21.34v62.8h-52.43
		V199.16z M606.02,293.05c20.73,0,30.48-10.37,30.48-28.05s-11.58-24.39-31.7-24.39h-17.68v52.43H606.02z"/>
	<path class="st1" d="M687.7,354.02c0-31.7,24.39-49.38,82.92-55.48c-1.22-10.97-7.93-15.85-21.34-15.85
		c-10.97,0-22.56,4.27-38.41,12.8l-18.29-34.14c21.34-12.8,43.29-20.12,67.06-20.12c39.63,0,63.41,21.34,63.41,71.33v84.75h-42.68
		l-3.66-14.63h-1.22c-12.19,10.97-25.61,18.29-42.07,18.29C704.78,400.97,687.7,379.02,687.7,354.02z M770.62,350.36v-20.73
		c-25,3.66-32.92,11.58-32.92,20.12c0,7.01,4.88,10.97,14.02,10.97C760.26,360.73,765.13,356.46,770.62,350.36z"/>
	<path class="st1" d="M837.68,338.78v-93.89h52.43v87.18c0,19.51,4.88,24.39,15.24,24.39c9.75,0,15.24-3.66,21.95-13.41v-98.16
		h52.43v152.42h-42.68l-3.66-20.12h-1.22c-12.19,14.63-26.22,23.78-46.95,23.78C851.7,400.97,837.68,376.58,837.68,338.78z"/>
	<path class="st1" d="M990.7,379.63l23.17-32.31c14.02,10.37,26.52,15.24,37.19,15.24c10.97,0,15.24-3.05,15.24-9.15
		c0-7.93-14.02-11.58-29.26-17.68c-17.68-7.01-38.41-20.12-38.41-45.12c0-29.87,24.39-49.38,60.36-49.38
		c25,0,42.68,10.06,56.09,20.12l-23.17,31.09c-10.97-7.93-21.64-12.8-31.09-12.8c-8.84,0-13.41,2.44-13.41,8.54
		c0,7.93,13.41,10.97,28.66,16.46c18.29,6.71,39.02,18.29,39.02,45.73c0,28.66-22.56,50.6-65.24,50.6
		C1030.33,400.97,1006.56,392.43,990.7,379.63z"/>
	<path class="st2" d="M1126.66,321.1c0-49.38,35.97-79.87,73.16-79.87c45.12,0,66.46,32.92,66.46,73.77
		c0,9.15-1.22,18.29-2.13,21.95h-86.88c4.88,18.29,18.29,24.39,35.36,24.39c10.36,0,20.12-3.05,31.09-9.15l17.07,31.09
		c-16.46,11.58-38.41,17.68-55.48,17.68C1160.8,400.97,1126.66,371.7,1126.66,321.1z M1221.77,302.81
		c0-11.58-4.88-21.95-20.73-21.95c-11.58,0-21.34,6.71-24.39,21.95H1221.77z"/>
	<path class="st3" d="M1354.06,199.16h72.55c43.29,0,80.48,15.85,80.48,65.85c0,48.47-37.8,69.5-79.26,69.5h-21.34v62.8h-52.43
		V199.16z M1425.39,293.05c20.73,0,30.48-10.37,30.48-28.05s-11.58-24.39-31.7-24.39h-17.68v52.43H1425.39z"/>
	<path class="st3" d="M1511.35,321.1c0-49.38,35.97-79.87,73.16-79.87c45.12,0,66.46,32.92,66.46,73.77
		c0,9.15-1.22,18.29-2.13,21.95h-86.88c4.88,18.29,18.29,24.39,35.36,24.39c10.36,0,20.12-3.05,31.09-9.15l17.07,31.09
		c-16.46,11.58-38.41,17.68-55.48,17.68C1545.49,400.97,1511.35,371.7,1511.35,321.1z M1606.46,302.81
		c0-11.58-4.88-21.95-20.73-21.95c-11.58,0-21.34,6.71-24.39,21.95H1606.46z"/>
	<path class="st3" d="M1667.42,244.89h42.68l3.66,26.22h1.22c11.28-20.73,28.35-29.87,43.29-29.87c9.45,0,14.63,1.22,18.9,3.05
		l-8.54,45.12c-5.49-1.22-10.36-2.44-17.07-2.44c-10.97,0-24.39,6.71-31.7,25.61v84.75h-52.43V244.89z"/>
	<path class="st3" d="M1789.96,246.72l23.17-1.83h74.99v40.85h-98.16V246.72z M1810.09,243.06c0-32.62,15.24-61.58,60.36-61.58
		c14.02,0,25.61,3.05,32.31,5.49l-9.14,38.41c-4.88-1.83-10.37-3.05-15.24-3.05c-9.75,0-15.85,4.57-15.85,18.9v156.08h-52.43V243.06
		z"/>
	<path class="st3" d="M1890.56,321.1c0-50.6,36.58-79.87,75.6-79.87s75.6,29.26,75.6,79.87s-36.58,79.87-75.6,79.87
		S1890.56,371.7,1890.56,321.1z M1988.1,321.1c0-23.17-6.1-37.8-21.95-37.8s-21.95,14.63-21.95,37.8s6.1,37.8,21.95,37.8
		S1988.1,344.27,1988.1,321.1z"/>
	<path class="st3" d="M2057,244.89h42.68l3.66,26.22h1.22c11.28-20.73,28.35-29.87,43.29-29.87c9.45,0,14.63,1.22,18.9,3.05
		l-8.54,45.12c-5.49-1.22-10.36-2.44-17.07-2.44c-10.97,0-24.39,6.71-31.7,25.61v84.75H2057V244.89z"/>
	<path class="st3" d="M2178.32,244.89H2221l3.66,18.59h1.22c12.19-11.89,25-22.25,45.73-22.25c20.73,0,33.84,8.54,42.07,24.39
		c12.5-12.8,26.22-24.39,46.95-24.39c33.53,0,48.16,24.39,48.16,62.19v93.89h-52.43v-87.18c0-19.51-4.88-24.39-15.24-24.39
		c-6.1,0-13.41,3.66-21.34,11.58v99.99h-52.43v-87.18c0-19.51-4.88-24.39-15.24-24.39c-6.1,0-13.41,3.66-21.34,11.58v99.99h-52.43
		V244.89z"/>
	<path class="st3" d="M2418.53,354.02c0-31.7,24.39-49.38,82.92-55.48c-1.22-10.97-7.93-15.85-21.34-15.85
		c-10.97,0-22.56,4.27-38.41,12.8l-18.29-34.14c21.34-12.8,43.29-20.12,67.07-20.12c39.63,0,63.41,21.34,63.41,71.33v84.75h-42.68
		l-3.66-14.63h-1.22c-12.19,10.97-25.61,18.29-42.07,18.29C2435.6,400.97,2418.53,379.02,2418.53,354.02z M2501.44,350.36v-20.73
		c-25,3.66-32.92,11.58-32.92,20.12c0,7.01,4.88,10.97,14.02,10.97C2491.08,360.73,2495.96,356.46,2501.44,350.36z"/>
	<path class="st3" d="M2569.72,244.89h42.68l3.66,18.29h1.22c12.19-11.58,27.44-21.95,48.17-21.95c33.53,0,47.56,24.39,47.56,62.19
		v93.89h-52.43v-87.18c0-19.51-4.88-24.39-15.24-24.39c-9.75,0-15.24,4.27-23.17,11.58v99.99h-52.43V244.89z"/>
	<path class="st3" d="M2720.92,321.1c0-50.6,38.41-79.87,81.7-79.87c18.29,0,32.92,6.1,44.51,15.85l-24.39,33.53
		c-6.71-5.49-11.58-7.32-17.07-7.32c-19.51,0-31.09,14.63-31.09,37.8s12.8,37.8,29.26,37.8c8.54,0,17.07-4.27,24.39-9.75
		l20.12,34.14c-15.24,13.41-34.75,17.68-50.6,17.68C2754.45,400.97,2720.92,371.7,2720.92,321.1z"/>
	<path class="st3" d="M2846.5,321.1c0-49.38,35.97-79.87,73.16-79.87c45.12,0,66.46,32.92,66.46,73.77c0,9.15-1.22,18.29-2.13,21.95
		h-86.88c4.88,18.29,18.29,24.39,35.36,24.39c10.36,0,20.12-3.05,31.09-9.15l17.07,31.09c-16.46,11.58-38.41,17.68-55.48,17.68
		C2880.64,400.97,2846.5,371.7,2846.5,321.1z M2941.61,302.81c0-11.58-4.88-21.95-20.73-21.95c-11.58,0-21.34,6.71-24.39,21.95
		H2941.61z"/>
</g>
<g>
	<path class="st4" d="M240.51,389.76V234.98l47.24-19.98v174.75H240.51z"/>
	<path class="st4" d="M306,389.76v-212.6h47.24v212.6H306z"/>
</g>
</svg>
